
<svg xmlns="http://www.w3.org/2000/svg" version="1.1" xmlns:xlink="http://www.w3.org/1999/xlink" preserveAspectRatio="none" x="0px" y="0px" width="1280px" height="230px" viewBox="0 0 1280 230">
<defs>
<g id="MARK_person_0_Layer1_0_FILL">
<path fill="#385C5E" stroke="none" d="
M 19.8 -67.25
Q 11.55 -75.5 0 -75.5 -11.55 -75.5 -19.8 -67.25 -28 -59.1 -28 -47.55 -28 -35.9 -19.8 -27.75 -11.55 -19.5 0 -19.5 11.55 -19.5 19.8 -27.75 28 -35.9 28 -47.55 28 -59.1 19.8 -67.25 Z"/>
</g>

<g id="MARK_person_0_Layer0_0_FILL">
<path fill="#385C5E" stroke="none" d="
M 95.35 -51.35
Q 89.959765625 -56.7466796875 82.3 -56.75 74.6400390625 -56.746875 69.2 -51.35
L -0.2 18.1 -69.7 -51.35
Q -75.145703125 -56.7501953125 -82.8 -56.75 -90.407421875 -56.71171875 -95.85 -51.3 -101.240625 -45.8478515625 -101.25 -38.25 -101.218359375 -30.5830078125 -95.85 -25.15
L -13.3 57.35
Q -7.8041015625 62.749609375 -0.2 62.7 7.45703125 62.71484375 12.85 57.3
L 95.35 -25.2
Q 100.7966796875 -30.590234375 100.8 -38.25 100.7966796875 -45.909765625 95.35 -51.35 Z"/>
</g>

<g id="MARK_roof_0_Layer0_0_FILL">
<path fill="#32B049" stroke="none" d="
M 116 87.45
L 145.45 58 0 -87.45 -145.45 58 -116 87.45 0 -28.55 116 87.45 Z"/>
</g>

<g id="SNAP_0_Layer0_0_FILL">
<path fill="#32B049" stroke="none" d="
M -59.85 -26
L -59.7 -37.3 -85.1 -37.3 -85.1 41.1 -59.7 41.1 -59.7 2.3
Q -59.7 -17.9 -45.75 -17.9 -38.45 -17.9 -35.7 -12.7 -33.6 -8.75 -33.6 0.25
L -33.6 41.1 -8.15 41.1 -8.15 -5.15
Q -8.15 -38.7 -36.8 -38.7 -51.7 -38.7 -59.55 -26
L -59.85 -26
M -171 -37.15
Q -171 -23.95 -162.4 -15.95 -158.75 -12.45 -149.35 -8.05
L -132.65 -1.85
Q -119.75 2.9 -119.75 10.3 -119.75 15.55 -124.05 18.65 -128 21.55 -134.45 21.55 -140.9 21.55 -148.9 17.75 -157.2 13.75 -163 7.7
L -175.75 26.5
Q -157.95 43.05 -136.75 43.05 -118.45 43.05 -107.1 33.95 -94.2 23.85 -94.2 7.7 -94.2 -4.85 -102.75 -13.4 -107.95 -18.6 -118.05 -22.35
L -134.45 -28.55
Q -145.55 -32.9 -145.55 -39.65 -145.55 -49.5 -131.25 -49.5 -117.9 -49.5 -106.7 -38.4
L -95.75 -56.35
Q -101.5 -62.1 -111.2 -65.95 -121.25 -69.85 -130.65 -69.85 -149.2 -69.85 -159.5 -61.15 -171 -51.7 -171 -37.15
M 112.6 -37.3
L 88.45 -37.3 88.45 69.9 113.85 69.9 113.85 31.25
Q 121.7 42.9 138.7 42.9 155.4 42.9 165.7 31.1 175.75 19.65 175.75 1.95 175.75 -15.65 165.7 -27 155.45 -38.7 138.85 -38.7 122.3 -38.7 112.75 -27.3
L 112.45 -27.3 112.6 -37.3
M 131.4 -18.7
Q 139.65 -18.7 144.7 -13 149.8 -7.4 149.8 1.65 149.8 10.75 144.7 16.4 139.65 22 131.4 22 123.25 22 118.2 16.4 113.1 10.75 113.1 1.65 113.1 -7.4 118.2 -13 123.25 -18.7 131.4 -18.7
M 30.3 -6.1
Q 17.65 -5.55 9.65 -0.45 -0.2 5.85 -0.2 17.9 -0.2 30.15 8.8 36.9 16.7 42.9 28.2 42.9 40.6 42.9 50.65 32.85
L 51.1 41.1 75.45 41.1 75.45 -3.1
Q 75.45 -20.8 66.1 -29.65 56.2 -38.7 36.8 -38.7 19.2 -38.7 3.25 -30.8
L 9.95 -14.25
Q 20.9 -21.25 33.95 -21.25 50 -21.25 50 -8.65
L 50 -6.9 30.3 -6.1
M 50.15 6.65
L 50.15 19.45
Q 45.95 26.65 37.1 26.65 31.85 26.65 28.6 24 25.25 21.4 25.25 16.95 25.25 7.85 37.6 7.4
L 50.15 6.65 Z"/>
</g>

<g id="LOAN_0_Layer0_0_FILL">
<path fill="#385C5E" stroke="none" d="
M -21.35 -14.9
Q -33.35 -25.85 -52.4 -25.85 -71.35 -25.85 -83.45 -14.9 -95.95 -3.6 -95.95 15 -95.95 33.6 -83.45 44.8 -71.4 55.75 -52.4 55.75 -33.35 55.75 -21.35 44.8 -9 33.6 -9 15 -9 -3.65 -21.35 -14.9
M -39.25 0
Q -34.55 5.6 -34.55 14.5 -34.55 23.45 -39.25 29.05 -44.15 34.85 -52.4 34.85 -60.6 34.85 -65.5 29.05 -70.15 23.45 -70.15 14.5 -70.15 5.6 -65.5 0 -60.6 -5.85 -52.4 -5.85 -44.15 -5.85 -39.25 0
M -134.7 -55.75
L -160.35 -55.75 -160.35 53.95 -96.75 53.95 -96.75 32.7 -134.7 32.7 -134.7 -55.75
M 108.75 -24.45
L 83.35 -24.45 83.35 53.95 108.75 53.95 108.75 15.15
Q 108.75 -5.05 122.7 -5.05 130 -5.05 132.75 0.15 134.85 4.1 134.85 13.1
L 134.85 53.95 160.3 53.95 160.3 7.7
Q 160.3 -25.85 131.65 -25.85 116.75 -25.85 108.9 -13.15
L 108.6 -13.15 108.75 -24.45
M 5.15 -1.4
Q 16.1 -8.4 29.15 -8.4 45.2 -8.4 45.2 4.2
L 45.2 5.95 25.5 6.75
Q 12.85 7.3 4.85 12.4 -5 18.7 -5 30.75 -5 43 4 49.75 11.9 55.75 23.4 55.75 35.8 55.75 45.85 45.7
L 46.3 53.95 70.65 53.95 70.65 9.75
Q 70.65 -7.95 61.3 -16.8 51.4 -25.85 32 -25.85 14.4 -25.85 -1.55 -17.95
L 5.15 -1.4
M 45.35 19.5
L 45.35 32.3
Q 41.15 39.5 32.3 39.5 27.05 39.5 23.8 36.85 20.45 34.25 20.45 29.8 20.45 20.7 32.8 20.25
L 45.35 19.5 Z"/>
</g>

<g id="registered_R_0_Layer0_0_FILL">
<path fill="#385C5E" stroke="none" d="
M 6.55 -7.7
Q 3.85 -10.35 0 -10.35 -3.9 -10.35 -6.55 -7.7 -9.2 -5.05 -9.2 -1.2 -9.2 2.7 -6.55 5.35 -3.9 8 0 8 3.85 8 6.55 5.35 9.2 2.7 9.2 -1.2 9.2 -5.05 6.55 -7.7
M 5.55 -6.75
Q 7.8 -4.5 7.8 -1.2 7.8 2.15 5.55 4.4 3.3 6.65 0 6.65 -3.3 6.65 -5.55 4.4 -7.85 2.15 -7.85 -1.2 -7.85 -4.5 -5.55 -6.75 -3.3 -9 0 -9 3.3 -9 5.55 -6.75
M 3.05 -5.7
Q 2 -6.55 0.2 -6.55
L -3.6 -6.55 -3.6 4.2 -1.4 4.2 -1.4 0 -0.35 0 1.9 4.2 4.55 4.2 1.85 -0.3
Q 4.05 -0.9 4.05 -3.35 4.05 -4.85 3.05 -5.7
M -1.4 -4.75
L -0.15 -4.75
Q 1.8 -4.75 1.8 -3.25 1.8 -1.8 -0.15 -1.8
L -1.4 -1.8 -1.4 -4.75 Z"/>
</g>
</defs>

<g transform="matrix( 1.49908447265625, 0, 0, 1.49969482421875, 633.75,115.25) ">
<g transform="matrix( 1, 0, 0, 1, -350.8,-6.7) ">
<g transform="matrix( 0.4947509765625, 0, 0, 0.4947509765625, 0,39.1) ">
<g transform="matrix( 1, 0, 0, 1, 0,0) ">
<use xlink:href="#MARK_person_0_Layer1_0_FILL"/>
</g>

<g transform="matrix( 1, 0, 0, 1, 0,0) ">
<use xlink:href="#MARK_person_0_Layer0_0_FILL"/>
</g>
</g>

<g transform="matrix( 0.4947509765625, 0, 0, 0.4947509765625, 0,-26.9) ">
<g transform="matrix( 1, 0, 0, 1, 0,0) ">
<use xlink:href="#MARK_roof_0_Layer0_0_FILL"/>
</g>
</g>
</g>

<g transform="matrix( 1, 0, 0, 1, 74.4,0) ">
<g transform="matrix( 1, 0, 0, 1, 168.5,6.6) ">
<g transform="matrix( 1, 0, 0, 1, 0,0) ">
<use xlink:href="#SNAP_0_Layer0_0_FILL"/>
</g>
</g>

<g transform="matrix( 1, 0, 0, 1, -175,-6.25) ">
<g transform="matrix( 1, 0, 0, 1, 0,0) ">
<use xlink:href="#LOAN_0_Layer0_0_FILL"/>
</g>
</g>
</g>
</g>

<g transform="matrix( 1.8743743896484375, 0, 0, 1.875030517578125, 1262.7,53) ">
<g transform="matrix( 1, 0, 0, 1, 0,0) ">
<use xlink:href="#registered_R_0_Layer0_0_FILL"/>
</g>
</g>
</svg>
